<svg width="25" height="29" viewBox="0 0 25 29" fill="none" xmlns="http://www.w3.org/2000/svg">
<path d="M8.72754 12.3887H20.1094C20.4316 12.3887 20.7202 12.4751 20.9751 12.6479C21.23 12.8208 21.4219 13.0479 21.5508 13.3291C21.6797 13.6104 21.7178 13.9121 21.665 14.2344L20.3994 21.8369C20.335 22.2178 20.1562 22.5327 19.8633 22.7817C19.5703 23.0308 19.2275 23.1553 18.835 23.1553H7.46191C7.13379 23.1553 6.84229 23.0688 6.5874 22.896C6.33252 22.7231 6.14062 22.4961 6.01172 22.2148C5.88281 21.9336 5.84473 21.6318 5.89746 21.3096L7.17188 13.707C7.23047 13.3262 7.40771 13.0112 7.70361 12.7622C7.99951 12.5132 8.34082 12.3887 8.72754 12.3887ZM8.41992 13.918L8.3584 14.2607L13.5088 17.8643C13.6143 17.9404 13.7256 17.9492 13.8428 17.8906L20.3555 14.375L20.417 14.0234C20.4346 13.9238 20.4111 13.8374 20.3467 13.7642C20.2822 13.6909 20.2031 13.6543 20.1094 13.6543H8.72754C8.55176 13.6543 8.44922 13.7422 8.41992 13.918ZM8.12988 15.6494L7.3916 20.0967L11.3994 17.9346L8.12988 15.6494ZM12.5596 18.752L7.1543 21.6611C7.20117 21.8135 7.30371 21.8896 7.46191 21.8896H18.835C18.9756 21.8896 19.0723 21.8281 19.125 21.7051L14.6777 18.875L14.4404 18.998C14.1768 19.1445 13.8955 19.209 13.5967 19.1914C13.2979 19.1738 13.0254 19.0771 12.7793 18.9014L12.5596 18.752ZM15.9521 18.1895L19.3623 20.3516L20.0918 15.957L15.9521 18.1895ZM3.33105 13.6543H6.17871C6.31348 13.6543 6.42773 13.7012 6.52148 13.7949C6.61523 13.8887 6.66211 14 6.66211 14.1289C6.66211 14.2578 6.61523 14.3691 6.52148 14.4629C6.42773 14.5566 6.31348 14.6035 6.17871 14.6035H3.33105C3.20215 14.6035 3.09082 14.5566 2.99707 14.4629C2.90332 14.3691 2.85645 14.2578 2.85645 14.1289C2.85645 14 2.90332 13.8887 2.99707 13.7949C3.09082 13.7012 3.20215 13.6543 3.33105 13.6543ZM3.33105 16.1855H5.5459C5.68066 16.1855 5.79346 16.2324 5.88428 16.3262C5.9751 16.4199 6.02051 16.5312 6.02051 16.6602C6.02051 16.7949 5.9751 16.9077 5.88428 16.9985C5.79346 17.0894 5.68066 17.1348 5.5459 17.1348H3.33105C3.20215 17.1348 3.09082 17.0894 2.99707 16.9985C2.90332 16.9077 2.85645 16.7949 2.85645 16.6602C2.85645 16.5312 2.90332 16.4199 2.99707 16.3262C3.09082 16.2324 3.20215 16.1855 3.33105 16.1855ZM2.86523 19.2002C2.86523 19.3291 2.91064 19.4404 3.00146 19.5342C3.09229 19.6279 3.20508 19.6748 3.33984 19.6748H4.92188C5.05078 19.6748 5.16211 19.6279 5.25586 19.5342C5.34961 19.4404 5.39648 19.3291 5.39648 19.2002C5.39648 19.0713 5.34961 18.96 5.25586 18.8662C5.16211 18.7725 5.05078 18.7256 4.92188 18.7256H3.33984C3.20508 18.7256 3.09229 18.7725 3.00146 18.8662C2.91064 18.96 2.86523 19.0713 2.86523 19.2002Z" fill="white"/>
</svg>
