<svg width="25" height="22" viewBox="0 0 25 22" fill="none" xmlns="http://www.w3.org/2000/svg">
<path d="M3.48926 12.6543C3.48926 13.8789 3.71924 15.0259 4.1792 16.0952C4.63916 17.1646 5.27637 18.1064 6.09082 18.9209C6.90527 19.7354 7.84863 20.3726 8.9209 20.8325C9.99316 21.2925 11.1387 21.5225 12.3574 21.5225C13.582 21.5225 14.7305 21.2925 15.8027 20.8325C16.875 20.3726 17.8169 19.7354 18.6284 18.9209C19.4399 18.1064 20.0757 17.1646 20.5356 16.0952C20.9956 15.0259 21.2256 13.8789 21.2256 12.6543C21.2256 11.4297 20.9956 10.2827 20.5356 9.21338C20.0757 8.14404 19.4399 7.20215 18.6284 6.3877C17.8169 5.57324 16.875 4.93604 15.8027 4.47607C14.7305 4.01611 13.582 3.78613 12.3574 3.78613C11.1387 3.78613 9.99316 4.01611 8.9209 4.47607C7.84863 4.93604 6.90527 5.57324 6.09082 6.3877C5.27637 7.20215 4.63916 8.14404 4.1792 9.21338C3.71924 10.2827 3.48926 11.4297 3.48926 12.6543ZM16.1367 13.2871C16.0605 14.4004 15.7852 15.4551 15.3105 16.4512H12.9902V13.2871H16.1367ZM15.3105 8.85742C15.7852 9.85352 16.0605 10.9082 16.1367 12.0215H12.9902V8.85742H15.3105ZM11.7246 13.2871V16.4512H9.41309C8.93848 15.4551 8.66016 14.4004 8.57812 13.2871H11.7246ZM8.57812 12.0215C8.66016 10.9082 8.93848 9.85352 9.41309 8.85742H11.7246V12.0215H8.57812ZM5.77441 16.4512C5.50488 15.9824 5.28369 15.4814 5.11084 14.9482C4.93799 14.415 4.82812 13.8613 4.78125 13.2871H7.3125C7.37695 14.3828 7.61426 15.4375 8.02441 16.4512H5.77441ZM16.6904 16.4512C17.1006 15.4375 17.3408 14.3828 17.4111 13.2871H19.9336C19.8867 13.8613 19.7783 14.415 19.6084 14.9482C19.4385 15.4814 19.2158 15.9854 18.9404 16.46V16.4512H16.6904ZM17.4111 12.0215C17.3408 10.9258 17.1006 9.87109 16.6904 8.85742H18.9404V8.84863C19.2158 9.32324 19.4385 9.82715 19.6084 10.3604C19.7783 10.8936 19.8867 11.4473 19.9336 12.0215H17.4111ZM4.78125 12.0215C4.82812 11.4473 4.93799 10.8936 5.11084 10.3604C5.28369 9.82715 5.50488 9.32617 5.77441 8.85742H8.02441C7.61426 9.87109 7.37695 10.9258 7.3125 12.0215H4.78125ZM10.459 20.0195C9.7207 19.8262 9.03223 19.5332 8.39355 19.1406C7.75488 18.748 7.18945 18.2764 6.69727 17.7256H8.64844C9.14062 18.5752 9.74414 19.3398 10.459 20.0195ZM14.2646 20.0107C14.9795 19.3369 15.583 18.5752 16.0752 17.7256H18.0176C17.5254 18.2705 16.96 18.7407 16.3213 19.1362C15.6826 19.5317 14.9971 19.8232 14.2646 20.0107ZM16.0752 7.58301C15.583 6.7334 14.9795 5.97168 14.2646 5.29785C15.0029 5.48535 15.6899 5.77686 16.3257 6.17236C16.9614 6.56787 17.5254 7.03809 18.0176 7.58301H16.0752ZM8.63965 7.58301H6.69727C7.18945 7.03809 7.75488 6.56787 8.39355 6.17236C9.03223 5.77686 9.71777 5.48535 10.4502 5.29785C9.73535 5.97168 9.13184 6.7334 8.63965 7.58301ZM12.9902 17.7256H14.5723C14.127 18.3643 13.5996 18.9385 12.9902 19.4482V17.7256ZM11.7246 17.7256V19.4482C11.1211 18.9385 10.5938 18.3643 10.1426 17.7256H11.7246ZM11.7246 5.86035V7.58301H10.1426C10.5938 6.93848 11.1211 6.36426 11.7246 5.86035ZM12.9902 5.86035C13.5938 6.36426 14.1211 6.93848 14.5723 7.58301H12.9902V5.86035Z" fill="white"/>
</svg>
